<?xml version="1.0" standalone="no"?>
<!DOCTYPE svg PUBLIC "-//W3C//DTD SVG 20010904//EN"
 "http://www.w3.org/TR/2001/REC-SVG-20010904/DTD/svg10.dtd">
<svg version="1.0" xmlns="http://www.w3.org/2000/svg"
 width="300.000000pt" height="180.000000pt" viewBox="0 0 300.000000 180.000000"
 preserveAspectRatio="xMidYMid meet">
<metadata>
Created by potrace 1.10, written by Peter Selinger 2001-2011
</metadata>
<g transform="translate(0.000000,180.000000) scale(0.100000,-0.100000)"
fill="#7ba9bd" stroke="none">
<path d="M182 1764 c-90 -45 -188 -180 -167 -231 6 -14 10 -10 20 22 20 62 41
97 81 135 40 38 118 80 147 80 10 0 15 5 12 10 -10 16 -38 12 -93 -16z"/>
<path d="M2725 1780 c-3 -5 0 -10 9 -10 8 0 35 -9 59 -19 77 -33 160 -129 177
-205 6 -25 9 -28 15 -13 12 28 -22 101 -71 156 -62 69 -170 121 -189 91z"/>
<path d="M268 1726 c-102 -28 -176 -107 -198 -211 -7 -35 -10 -247 -8 -646 3
-579 4 -595 24 -639 31 -67 68 -106 132 -137 l57 -28 1225 0 1225 0 57 28 c64
31 101 70 132 137 21 44 21 57 21 670 0 613 0 626 -21 670 -31 67 -68 106
-132 137 l-57 28 -1205 2 c-950 1 -1215 -1 -1252 -11z m2492 -36 c4 -6 11 -10
16 -8 14 4 67 -42 90 -78 10 -16 22 -32 27 -35 4 -3 8 -304 8 -668 0 -584 -2
-663 -15 -677 -9 -8 -16 -19 -16 -22 0 -11 -60 -75 -60 -65 0 4 -5 0 -11 -9
-6 -11 -22 -18 -40 -18 -18 0 -28 -4 -24 -10 4 -7 -408 -10 -1230 -10 -1247 0
-1262 0 -1286 33 -3 4 -10 7 -15 5 -14 -4 -86 74 -101 110 -20 49 -16 1311 4
1319 8 3 12 12 9 19 -5 13 60 84 77 84 5 0 5 5 2 10 -6 9 -2 12 28 14 6 1 17
6 23 11 16 15 2504 10 2514 -5z"/>
<path d="M283 1653 c-13 -2 -23 -9 -23 -14 0 -6 -4 -7 -10 -4 -5 3 -10 1 -10
-4 0 -6 -4 -11 -10 -11 -13 0 -50 -37 -50 -50 0 -5 -5 -10 -11 -10 -5 0 -8 -4
-5 -9 4 -5 0 -11 -6 -13 -10 -4 -13 -138 -13 -637 0 -551 2 -633 15 -641 8 -5
11 -10 6 -10 -6 0 -1 -7 10 -15 10 -8 16 -15 12 -15 -17 0 37 -50 54 -50 11 0
16 -5 13 -10 -4 -7 408 -10 1228 -10 1200 0 1234 1 1273 19 40 19 75 51 58 51
-5 0 -2 6 6 13 8 7 17 19 20 27 5 16 5 1260 0 1285 -2 8 -7 15 -12 15 -4 0 -8
6 -8 13 0 14 -35 47 -50 47 -6 0 -10 4 -10 10 0 27 -104 30 -1265 29 -655 -1
-1200 -4 -1212 -6z m2473 -49 c15 -11 37 -33 48 -48 21 -27 21 -37 21 -656 0
-619 0 -629 -21 -656 -11 -15 -33 -37 -48 -48 -27 -21 -31 -21 -1256 -21
-1225 0 -1229 0 -1256 21 -15 11 -37 33 -48 48 -21 27 -21 39 -24 629 -2 331
0 616 3 634 7 40 49 91 90 109 24 11 250 13 1247 11 1211 -2 1217 -2 1244 -23z"/>
<path d="M1425 1397 c-93 -31 -153 -81 -189 -157 -20 -43 -21 -60 -21 -345 l0
-300 28 -58 c101 -205 408 -207 515 -3 l27 51 0 305 0 305 -29 58 c-29 60 -78
105 -144 133 -48 21 -140 26 -187 11z m174 -28 c17 -6 28 -15 25 -20 -3 -5 3
-9 13 -9 10 0 31 -15 47 -32 16 -18 31 -31 33 -28 3 3 11 -10 19 -29 11 -26
14 -93 14 -302 0 -168 4 -270 10 -274 6 -3 10 -14 9 -23 0 -14 -2 -13 -9 3 -6
15 -8 7 -8 -27 1 -60 -18 -106 -56 -138 -16 -14 -38 -33 -47 -44 -10 -10 -22
-15 -28 -11 -6 3 -11 1 -11 -5 0 -7 -7 -9 -16 -6 -8 3 -13 2 -10 -3 3 -5 -15
-11 -39 -13 -60 -7 -136 2 -128 15 3 6 1 7 -5 3 -13 -8 -85 28 -75 38 3 3 -1
6 -10 6 -9 0 -22 10 -28 22 -6 13 -20 33 -31 45 -11 12 -17 26 -14 32 4 5 2
12 -4 16 -16 10 -13 598 3 638 18 42 96 123 115 119 8 -2 11 1 8 7 -7 11 29
25 44 16 5 -3 10 -2 10 4 0 22 106 22 169 0z m168 -266 c-3 -10 -5 -2 -5 17 0
19 2 27 5 18 2 -10 2 -26 0 -35z m0 -45 c-3 -8 -6 -5 -6 6 -1 11 2 17 5 13 3
-3 4 -12 1 -19z"/>
<path d="M1433 1273 c-13 -2 -23 -9 -23 -14 0 -5 -6 -9 -14 -9 -8 0 -18 -9
-21 -20 -3 -11 -10 -20 -14 -20 -13 0 -15 -46 -16 -333 0 -245 2 -289 15 -297
8 -5 11 -10 7 -10 -20 0 48 -52 85 -66 35 -12 52 -13 88 -4 47 12 90 44 90 67
0 7 4 13 9 13 4 0 14 27 21 60 17 79 2 561 -18 568 -7 2 -12 9 -12 16 0 7 -10
21 -22 32 -14 13 -19 14 -14 4 7 -13 6 -13 -6 0 -13 15 -108 23 -155 13z m137
-26 c13 -7 35 -28 47 -46 23 -33 23 -39 23 -305 0 -251 -2 -273 -20 -303 -28
-47 -62 -65 -121 -65 -60 0 -95 21 -121 73 -16 30 -18 66 -18 292 0 287 4 312
62 347 38 23 110 26 148 7z"/>
<path d="M1324 800 c0 -74 1 -105 3 -67 2 37 2 97 0 135 -2 37 -3 6 -3 -68z"/>
<path d="M598 1040 c-167 -358 -168 -360 -168 -430 l0 -70 210 0 210 0 0 -75
0 -75 73 0 72 0 -3 75 -4 75 44 0 43 0 -2 67 -1 68 -41 -3 -41 -4 0 151 0 151
-70 0 -70 0 0 -150 0 -150 -131 0 c-120 0 -131 1 -126 18 3 9 79 173 170 365
l165 347 -81 0 -82 0 -167 -360z m282 330 c8 -5 10 -10 4 -10 -6 0 -11 -7 -11
-15 0 -21 -55 -135 -65 -135 -4 0 -4 -7 -1 -17 4 -10 2 -14 -4 -10 -6 4 -16
-12 -23 -38 -7 -25 -17 -45 -21 -45 -5 0 -9 -9 -9 -20 0 -11 -4 -20 -8 -20 -5
0 -9 -6 -9 -12 0 -20 -73 -172 -86 -180 -7 -4 -9 -8 -5 -8 4 0 -1 -15 -12 -32
-11 -18 -20 -41 -20 -50 0 -10 -4 -18 -8 -18 -11 0 -35 -87 -27 -99 4 -7 58
-11 145 -11 113 0 139 3 144 15 3 8 6 77 7 152 1 76 4 132 6 126 3 -7 11 -13
19 -13 9 0 12 5 9 10 -3 6 0 10 9 10 8 0 17 -6 19 -12 4 -10 8 -10 15 0 13 20
18 -13 21 -148 1 -63 7 -120 13 -127 6 -7 23 -13 38 -13 26 0 28 -2 26 -44 -1
-39 -3 -44 -24 -43 -39 0 -54 -25 -55 -92 l-2 -61 -47 0 c-27 0 -48 5 -48 11
0 5 6 7 13 3 9 -6 9 -4 1 7 -6 8 -12 36 -13 64 -1 27 -7 53 -14 57 -10 7 -101
9 -347 10 l-56 0 -2 62 c-2 47 1 66 12 75 9 7 13 17 10 22 -3 5 -1 9 4 9 6 0
16 20 23 45 7 25 17 45 21 45 4 0 8 6 8 13 0 8 19 52 42 98 23 46 42 87 42 91
1 4 13 31 28 60 15 29 34 71 44 93 40 96 78 171 91 178 7 5 11 12 9 16 -7 11
77 12 94 1z"/>
<path d="M2098 1040 c-167 -358 -168 -360 -168 -430 l0 -70 210 0 210 0 0 -75
0 -75 73 0 72 0 -3 75 -4 75 44 0 43 0 -2 67 -1 68 -41 -3 -41 -4 0 151 0 151
-70 0 -70 0 0 -150 0 -150 -131 1 c-117 0 -130 2 -126 17 3 9 79 173 170 365
l165 347 -81 0 -82 0 -167 -360z m186 328 c-6 -10 -4 -10 7 0 16 15 43 16 34
1 -4 -6 2 -5 14 3 15 9 24 9 31 2 12 -12 3 -64 -11 -64 -5 0 -9 -6 -9 -14 0
-18 -100 -230 -110 -234 -4 -2 -14 -23 -21 -48 -7 -24 -17 -44 -21 -44 -4 0
-8 -5 -8 -12 0 -19 -43 -108 -52 -108 -5 0 -6 -4 -3 -10 3 -5 2 -10 -3 -10 -6
0 -9 -6 -9 -12 1 -21 -24 -78 -35 -78 -5 0 -6 -4 -3 -10 3 -5 1 -10 -4 -10
-12 0 -14 -29 -5 -54 5 -14 28 -16 144 -16 77 0 141 4 144 8 3 5 6 72 7 150 2
125 4 140 17 129 12 -9 16 -9 19 1 3 6 11 12 19 12 9 0 12 -4 9 -10 -3 -5 0
-10 9 -10 8 0 16 6 19 13 2 6 5 -51 6 -127 1 -83 6 -145 13 -153 6 -7 22 -13
37 -13 24 0 27 -4 26 -32 -3 -55 -4 -58 -27 -58 -39 0 -48 -14 -49 -68 -1 -29
-6 -55 -11 -58 -6 -4 -5 -10 3 -15 9 -6 -5 -9 -38 -9 -31 0 -53 4 -53 11 0 5
6 7 13 3 9 -6 9 -4 1 7 -6 8 -12 36 -13 64 -1 27 -7 53 -14 57 -6 4 -77 8
-157 9 -80 1 -169 2 -197 2 l-53 1 0 55 c0 55 42 171 62 171 5 0 7 4 4 9 -3 4
17 53 44 109 28 55 50 105 50 111 0 6 4 11 8 11 5 0 9 6 9 13 0 6 19 51 42 99
22 48 41 92 41 97 0 5 7 14 15 21 8 7 12 16 9 21 -3 5 0 9 5 9 6 0 11 4 11 9
0 14 30 81 36 81 3 0 2 -6 -2 -12z"/>
<path d="M868 133 c314 -2 830 -2 1145 0 314 1 57 2 -573 2 -630 0 -887 -1
-572 -2z"/>
<path d="M2618 133 c18 -2 45 -2 60 0 15 2 0 4 -33 4 -33 0 -45 -2 -27 -4z"/>
<path d="M15 267 c-12 -28 21 -101 71 -156 59 -66 184 -128 184 -91 0 6 -5 10
-11 10 -23 0 -96 41 -137 76 -40 34 -84 109 -95 159 -4 19 -4 19 -12 2z"/>
<path d="M2970 266 c0 -29 -40 -105 -76 -145 -35 -40 -120 -91 -150 -91 -8 0
-14 -4 -14 -10 0 -35 122 24 180 86 61 66 97 153 70 169 -5 3 -10 0 -10 -9z"/>
</g>
</svg>
